<?xml version="1.0" encoding="UTF-8" standalone="no"?><!DOCTYPE svg PUBLIC "-//W3C//DTD SVG 1.1//EN" "http://www.w3.org/Graphics/SVG/1.1/DTD/svg11.dtd"><svg width="100%" height="100%" viewBox="0 0 2086 2084" version="1.1" xmlns="http://www.w3.org/2000/svg" xmlns:xlink="http://www.w3.org/1999/xlink" xml:space="preserve" xmlns:serif="http://www.serif.com/" style="fill-rule:evenodd;clip-rule:evenodd;stroke-linejoin:round;stroke-miterlimit:2;"><rect x="0.537" y="0" width="2083.33" height="2083.33" style="fill:#0f0;"/><clipPath id="_clip1"><rect x="0.537" y="0" width="2083.33" height="2083.33"/></clipPath><g clip-path="url(#_clip1)"><path d="M1563.04,0l520.834,520.833l-520.834,520.834l-520.833,-520.834l520.833,-520.833Z" style="fill:#0000fc;"/><path d="M521.371,0l520.833,520.833l-520.833,520.834l-520.834,-520.834l520.834,-520.833Z" style="fill:#0000fc;"/><path d="M521.371,1041.67l520.833,520.833l-520.833,520.833l-520.834,-520.833l520.834,-520.833Z" style="fill:#0000fc;"/><path d="M1563.04,1041.67l520.834,520.833l-520.834,520.833l-520.833,-520.833l520.833,-520.833Z" style="fill:#0000fc;"/><path d="M2083.87,520.833l520.833,520.834l-520.833,520.833l-520.834,-520.833l520.834,-520.834Z" style="fill:#f00;"/><path d="M1042.2,-520.833l520.833,520.833l-520.833,520.833l-520.833,-520.833l520.833,-520.833Z" style="fill:#f00;"/><path d="M0.537,520.833l520.834,520.834l-520.834,520.833l-520.833,-520.833l520.833,-520.834Z" style="fill:#f00;"/><path d="M1042.2,1562.5l520.833,520.833l-520.833,520.834l-520.833,-520.834l520.833,-520.833Z" style="fill:#f00;"/></g></svg>